<?xml version="1.0" encoding="utf-8"?><svg viewBox="0 0 949 337" width="100%" height="100%" version="1.1" xmlns:xlink="http://www.w3.org/1999/xlink" xmlns="http://www.w3.org/2000/svg"><defs><clipPath id="clip_0"><path d="M 0 0 l 949,0 l 0,337 l -949,0 z M 290.5477 30.18762 l 0,86.22698 l 39.00665,0 l 0,-86.22698 z " clip-rule="nonzero" /></clipPath><clipPath id="clip_1"><path d="M 0 0 l 949,0 l 0,337 l -949,0 z M 613.775 30.18762 l 0,86.22698 l 39.00665,0 l 0,-86.22698 z " clip-rule="nonzero" /></clipPath><clipPath id="clip_2"><path d="M 0 0 l 949,0 l 0,337 l -949,0 z M 452.1613 -9.08168 l 0,122.2356 l 39.00665,0 l 0,-122.2356 z " clip-rule="nonzero" /></clipPath></defs><rect x="82.20473" y="147.4016" width="150.2362" height="121.8898" fill="#E5E5E5" fill-opacity="1" transform="matrix(2.000481 0 0 2.000481 159.7786 -203.1433)" /><rect x="82.20473" y="147.4016" width="150.2362" height="121.8898" fill="none" stroke="#B2B2B2" stroke-width="1" stroke-linecap="butt" stroke-linejoin="miter" stroke-dasharray="" transform="matrix(2.000481 0 0 2.000481 159.7786 -203.1433)" /><text x="108.3033" y="263.8851" font-size="12" fill="#000000" fill-opacity="1" font-family="Arial" font-weight="normal" font-style="normal" transform="matrix(2.000481 0 0 2.000481 159.7786 -203.1433)">Service Provider 1</text><rect x="87.87402" y="212.5984" width="62.3622" height="28.34646" rx="7.086614" ry="7.086614" fill="#FFFFFF" fill-opacity="1" transform="matrix(2.000481 0 0 2.000481 159.7786 -203.1433)" /><rect x="87.87402" y="212.5984" width="62.3622" height="28.34646" rx="7.086614" ry="7.086614" fill="none" stroke="#000000" stroke-width="1" stroke-linecap="butt" stroke-linejoin="miter" stroke-dasharray="" transform="matrix(2.000481 0 0 2.000481 159.7786 -203.1433)" /><text x="97.36127" y="230.6271" font-size="11" fill="#000000" fill-opacity="1" font-family="Arial" font-weight="normal" font-style="normal" transform="matrix(2.000481 0 0 2.000481 159.7786 -203.1433)">MN-CSE</text><rect x="164.4095" y="212.5984" width="62.36221" height="28.34646" rx="7.086614" ry="7.086614" fill="#FFFFFF" fill-opacity="1" transform="matrix(2.000481 0 0 2.000481 159.7786 -203.1433)" /><rect x="164.4095" y="212.5984" width="62.36221" height="28.34646" rx="7.086614" ry="7.086614" fill="none" stroke="#000000" stroke-width="1" stroke-linecap="butt" stroke-linejoin="miter" stroke-dasharray="" transform="matrix(2.000481 0 0 2.000481 159.7786 -203.1433)" /><text x="173.8967" y="230.6271" font-size="11" fill="#000000" fill-opacity="1" font-family="Arial" font-weight="normal" font-style="normal" transform="matrix(2.000481 0 0 2.000481 159.7786 -203.1433)">MN-CSE</text><text x="131.6444" y="198.6563" font-size="6" fill="#0066F5" fill-opacity="1" font-family="Arial" font-weight="bold" font-style="normal" transform="matrix(2.000481 0 0 2.000481 159.7786 -203.1433)">Mcc</text><line x1="147.1316" y1="181.4173" x2="140.298" y2="192.4563" stroke="#0066F5" stroke-width="1" stroke-linecap="butt" stroke-linejoin="miter" stroke-dasharray="" transform="matrix(2.000481 0 0 2.000481 159.7786 -203.1433)" /><line x1="127.829" y1="212.5984" x2="134.6627" y2="201.5594" stroke="#0066F5" stroke-width="1" stroke-linecap="butt" stroke-linejoin="miter" stroke-dasharray="" transform="matrix(2.000481 0 0 2.000481 159.7786 -203.1433)" /><text x="169.9121" y="198.6563" font-size="6" fill="#0066F5" fill-opacity="1" font-family="Arial" font-weight="bold" font-style="normal" transform="matrix(2.000481 0 0 2.000481 159.7786 -203.1433)">Mcc</text><line x1="165.3544" y1="181.4173" x2="172.7137" y2="192.4563" stroke="#0066F5" stroke-width="1" stroke-linecap="butt" stroke-linejoin="miter" stroke-dasharray="" transform="matrix(2.000481 0 0 2.000481 159.7786 -203.1433)" /><line x1="186.1417" y1="212.5984" x2="178.7824" y2="201.5594" stroke="#0066F5" stroke-width="1" stroke-linecap="butt" stroke-linejoin="miter" stroke-dasharray="" transform="matrix(2.000481 0 0 2.000481 159.7786 -203.1433)" /><rect x="-79.37009" y="147.4016" width="150.2362" height="121.8898" fill="#E5E5E5" fill-opacity="1" transform="matrix(2.000481 0 0 2.000481 159.7786 -203.1433)" /><rect x="-79.37009" y="147.4016" width="150.2362" height="121.8898" fill="none" stroke="#B2B2B2" stroke-width="1" stroke-linecap="butt" stroke-linejoin="miter" stroke-dasharray="" transform="matrix(2.000481 0 0 2.000481 159.7786 -203.1433)" /><text x="-53.27151" y="263.8851" font-size="12" fill="#000000" fill-opacity="1" font-family="Arial" font-weight="normal" font-style="normal" transform="matrix(2.000481 0 0 2.000481 159.7786 -203.1433)">Service Provider 0</text><rect x="-73.70079" y="212.5984" width="62.3622" height="28.34646" rx="7.086614" ry="7.086614" fill="#FFFFFF" fill-opacity="1" transform="matrix(2.000481 0 0 2.000481 159.7786 -203.1433)" /><rect x="-73.70079" y="212.5984" width="62.3622" height="28.34646" rx="7.086614" ry="7.086614" fill="none" stroke="#000000" stroke-width="1" stroke-linecap="butt" stroke-linejoin="miter" stroke-dasharray="" transform="matrix(2.000481 0 0 2.000481 159.7786 -203.1433)" /><text x="-66.18571" y="231.0685" font-size="12" fill="#000000" fill-opacity="1" font-family="Arial" font-weight="normal" font-style="normal" transform="matrix(2.000481 0 0 2.000481 159.7786 -203.1433)">MN-CSE</text><text x="-29.93043" y="198.6563" font-size="6" fill="#0066F5" fill-opacity="1" font-family="Arial" font-weight="bold" font-style="normal" transform="matrix(2.000481 0 0 2.000481 159.7786 -203.1433)">Mcc</text><line x1="-14.4432" y1="181.4173" x2="-21.27686" y2="192.4563" stroke="#0066F5" stroke-width="1" stroke-linecap="butt" stroke-linejoin="miter" stroke-dasharray="" transform="matrix(2.000481 0 0 2.000481 159.7786 -203.1433)" /><line x1="-33.74579" y1="212.5984" x2="-26.91212" y2="201.5594" stroke="#0066F5" stroke-width="1" stroke-linecap="butt" stroke-linejoin="miter" stroke-dasharray="" transform="matrix(2.000481 0 0 2.000481 159.7786 -203.1433)" /><rect x="2.834636" y="212.5984" width="62.36221" height="28.34646" rx="7.086614" ry="7.086614" fill="#FFFFFF" fill-opacity="1" transform="matrix(2.000481 0 0 2.000481 159.7786 -203.1433)" /><rect x="2.834636" y="212.5984" width="62.36221" height="28.34646" rx="7.086614" ry="7.086614" fill="none" stroke="#000000" stroke-width="1" stroke-linecap="butt" stroke-linejoin="miter" stroke-dasharray="" transform="matrix(2.000481 0 0 2.000481 159.7786 -203.1433)" /><text x="12.32189" y="230.6271" font-size="11" fill="#000000" fill-opacity="1" font-family="Arial" font-weight="normal" font-style="normal" transform="matrix(2.000481 0 0 2.000481 159.7786 -203.1433)">MN-CSE</text><text x="8.337286" y="198.6563" font-size="6" fill="#0066F5" fill-opacity="1" font-family="Arial" font-weight="bold" font-style="normal" transform="matrix(2.000481 0 0 2.000481 159.7786 -203.1433)">Mcc</text><line x1="3.779521" y1="181.4173" x2="11.13884" y2="192.4563" stroke="#0066F5" stroke-width="1" stroke-linecap="butt" stroke-linejoin="miter" stroke-dasharray="" transform="matrix(2.000481 0 0 2.000481 159.7786 -203.1433)" /><line x1="24.56693" y1="212.5984" x2="17.2076" y2="201.5594" stroke="#0066F5" stroke-width="1" stroke-linecap="butt" stroke-linejoin="miter" stroke-dasharray="" transform="matrix(2.000481 0 0 2.000481 159.7786 -203.1433)" /><rect x="243.7795" y="147.4016" width="150.2362" height="121.8898" fill="#E5E5E5" fill-opacity="1" transform="matrix(2.000481 0 0 2.000481 159.7786 -203.1433)" /><rect x="243.7795" y="147.4016" width="150.2362" height="121.8898" fill="none" stroke="#B2B2B2" stroke-width="1" stroke-linecap="butt" stroke-linejoin="miter" stroke-dasharray="" transform="matrix(2.000481 0 0 2.000481 159.7786 -203.1433)" /><text x="269.8781" y="263.8851" font-size="12" fill="#000000" fill-opacity="1" font-family="Arial" font-weight="normal" font-style="normal" transform="matrix(2.000481 0 0 2.000481 159.7786 -203.1433)">Service Provider 2</text><rect x="249.4488" y="212.5984" width="62.3622" height="28.34646" rx="7.086614" ry="7.086614" fill="#FFFFFF" fill-opacity="1" transform="matrix(2.000481 0 0 2.000481 159.7786 -203.1433)" /><rect x="249.4488" y="212.5984" width="62.3622" height="28.34646" rx="7.086614" ry="7.086614" fill="none" stroke="#000000" stroke-width="1" stroke-linecap="butt" stroke-linejoin="miter" stroke-dasharray="" transform="matrix(2.000481 0 0 2.000481 159.7786 -203.1433)" /><text x="258.9361" y="230.6271" font-size="11" fill="#000000" fill-opacity="1" font-family="Arial" font-weight="normal" font-style="normal" transform="matrix(2.000481 0 0 2.000481 159.7786 -203.1433)">MN-CSE</text><rect x="325.9843" y="212.5984" width="62.36221" height="28.34646" rx="7.086614" ry="7.086614" fill="#FFFFFF" fill-opacity="1" transform="matrix(2.000481 0 0 2.000481 159.7786 -203.1433)" /><rect x="325.9843" y="212.5984" width="62.36221" height="28.34646" rx="7.086614" ry="7.086614" fill="none" stroke="#000000" stroke-width="1" stroke-linecap="butt" stroke-linejoin="miter" stroke-dasharray="" transform="matrix(2.000481 0 0 2.000481 159.7786 -203.1433)" /><text x="335.4715" y="230.6271" font-size="11" fill="#000000" fill-opacity="1" font-family="Arial" font-weight="normal" font-style="normal" transform="matrix(2.000481 0 0 2.000481 159.7786 -203.1433)">MN-CSE</text><text x="293.2192" y="198.6563" font-size="6" fill="#0066F5" fill-opacity="1" font-family="Arial" font-weight="bold" font-style="normal" transform="matrix(2.000481 0 0 2.000481 159.7786 -203.1433)">Mcc</text><line x1="308.7065" y1="181.4173" x2="301.8728" y2="192.4563" stroke="#0066F5" stroke-width="1" stroke-linecap="butt" stroke-linejoin="miter" stroke-dasharray="" transform="matrix(2.000481 0 0 2.000481 159.7786 -203.1433)" /><line x1="289.4038" y1="212.5984" x2="296.2375" y2="201.5594" stroke="#0066F5" stroke-width="1" stroke-linecap="butt" stroke-linejoin="miter" stroke-dasharray="" transform="matrix(2.000481 0 0 2.000481 159.7786 -203.1433)" /><text x="331.4869" y="198.6563" font-size="6" fill="#0066F5" fill-opacity="1" font-family="Arial" font-weight="bold" font-style="normal" transform="matrix(2.000481 0 0 2.000481 159.7786 -203.1433)">Mcc</text><line x1="326.9292" y1="181.4173" x2="334.2885" y2="192.4563" stroke="#0066F5" stroke-width="1" stroke-linecap="butt" stroke-linejoin="miter" stroke-dasharray="" transform="matrix(2.000481 0 0 2.000481 159.7786 -203.1433)" /><line x1="347.7166" y1="212.5984" x2="340.3572" y2="201.5594" stroke="#0066F5" stroke-width="1" stroke-linecap="butt" stroke-linejoin="miter" stroke-dasharray="" transform="matrix(2.000481 0 0 2.000481 159.7786 -203.1433)" /><text x="68.5688" y="124.8374" font-size="6" fill="#D8832B" fill-opacity="1" font-family="Arial" font-weight="bold" font-style="normal" transform="matrix(2.000481 0 0 2.000481 159.7786 -203.1433)">Mcc'
</text><text x="75.11812" y="130.8374" font-size="6" fill="#D8832B" fill-opacity="1" font-family="Arial" font-weight="bold" font-style="normal" transform="matrix(2.000481 0 0 2.000481 159.7786 -203.1433)">
</text><text x="75.11812" y="136.8374" font-size="6" fill="#D8832B" fill-opacity="1" font-family="Arial" font-weight="bold" font-style="normal" transform="matrix(2.000481 0 0 2.000481 159.7786 -203.1433)">
</text><text x="75.11812" y="142.8374" font-size="6" fill="#D8832B" fill-opacity="1" font-family="Arial" font-weight="bold" font-style="normal" transform="matrix(2.000481 0 0 2.000481 159.7786 -203.1433)">
</text><text x="75.11812" y="148.8374" font-size="6" fill="#D8832B" fill-opacity="1" font-family="Arial" font-weight="bold" font-style="normal" transform="matrix(2.000481 0 0 2.000481 159.7786 -203.1433)">
</text><text x="75.11812" y="154.8374" font-size="6" fill="#D8832B" fill-opacity="1" font-family="Arial" font-weight="bold" font-style="normal" transform="matrix(2.000481 0 0 2.000481 159.7786 -203.1433)">
</text><g clip-path="url(#clip_0)"><path d="M-5.669291 153.0709 C48.18898 113.3858 113.3858 113.3858 155.9055 153.0709" fill="none" stroke="#D8832B" stroke-width="1" stroke-linecap="butt" stroke-linejoin="miter" stroke-dasharray="" transform="matrix(2.000481 0 0 2.000481 159.7786 -203.1433)" /></g><text x="230.1436" y="124.8374" font-size="6" fill="#D8832B" fill-opacity="1" font-family="Arial" font-weight="bold" font-style="normal" transform="matrix(2.000481 0 0 2.000481 159.7786 -203.1433)">Mcc'
</text><text x="236.6929" y="130.8374" font-size="6" fill="#D8832B" fill-opacity="1" font-family="Arial" font-weight="bold" font-style="normal" transform="matrix(2.000481 0 0 2.000481 159.7786 -203.1433)">
</text><text x="236.6929" y="136.8374" font-size="6" fill="#D8832B" fill-opacity="1" font-family="Arial" font-weight="bold" font-style="normal" transform="matrix(2.000481 0 0 2.000481 159.7786 -203.1433)">
</text><text x="236.6929" y="142.8374" font-size="6" fill="#D8832B" fill-opacity="1" font-family="Arial" font-weight="bold" font-style="normal" transform="matrix(2.000481 0 0 2.000481 159.7786 -203.1433)">
</text><text x="236.6929" y="148.8374" font-size="6" fill="#D8832B" fill-opacity="1" font-family="Arial" font-weight="bold" font-style="normal" transform="matrix(2.000481 0 0 2.000481 159.7786 -203.1433)">
</text><text x="236.6929" y="154.8374" font-size="6" fill="#D8832B" fill-opacity="1" font-family="Arial" font-weight="bold" font-style="normal" transform="matrix(2.000481 0 0 2.000481 159.7786 -203.1433)">
</text><g clip-path="url(#clip_1)"><path d="M155.9055 153.0709 C209.7638 113.3858 274.9607 113.3858 317.4803 153.0709" fill="none" stroke="#D8832B" stroke-width="1" stroke-linecap="butt" stroke-linejoin="miter" stroke-dasharray="" transform="matrix(2.000481 0 0 2.000481 159.7786 -203.1433)" /></g><text x="149.3562" y="105.2075" font-size="6" fill="#D8832B" fill-opacity="1" font-family="Arial" font-weight="bold" font-style="normal" transform="matrix(2.000481 0 0 2.000481 159.7786 -203.1433)">Mcc'
</text><text x="155.9055" y="111.2075" font-size="6" fill="#D8832B" fill-opacity="1" font-family="Arial" font-weight="bold" font-style="normal" transform="matrix(2.000481 0 0 2.000481 159.7786 -203.1433)">
</text><text x="155.9055" y="117.2075" font-size="6" fill="#D8832B" fill-opacity="1" font-family="Arial" font-weight="bold" font-style="normal" transform="matrix(2.000481 0 0 2.000481 159.7786 -203.1433)">
</text><text x="155.9055" y="123.2075" font-size="6" fill="#D8832B" fill-opacity="1" font-family="Arial" font-weight="bold" font-style="normal" transform="matrix(2.000481 0 0 2.000481 159.7786 -203.1433)">
</text><text x="155.9055" y="129.2075" font-size="6" fill="#D8832B" fill-opacity="1" font-family="Arial" font-weight="bold" font-style="normal" transform="matrix(2.000481 0 0 2.000481 159.7786 -203.1433)">
</text><text x="155.9055" y="135.2075" font-size="6" fill="#D8832B" fill-opacity="1" font-family="Arial" font-weight="bold" font-style="normal" transform="matrix(2.000481 0 0 2.000481 159.7786 -203.1433)">
</text><text x="155.9055" y="141.2075" font-size="6" fill="#D8832B" fill-opacity="1" font-family="Arial" font-weight="bold" font-style="normal" transform="matrix(2.000481 0 0 2.000481 159.7786 -203.1433)">
</text><text x="155.9055" y="147.2075" font-size="6" fill="#D8832B" fill-opacity="1" font-family="Arial" font-weight="bold" font-style="normal" transform="matrix(2.000481 0 0 2.000481 159.7786 -203.1433)">
</text><text x="155.9055" y="153.2075" font-size="6" fill="#D8832B" fill-opacity="1" font-family="Arial" font-weight="bold" font-style="normal" transform="matrix(2.000481 0 0 2.000481 159.7786 -203.1433)">
</text><g clip-path="url(#clip_2)"><path d="M-5.669291 153.0709 C28.34646 85.03937 297.6378 85.03937 317.4803 153.0709" fill="none" stroke="#D8832B" stroke-width="1" stroke-linecap="butt" stroke-linejoin="miter" stroke-dasharray="" transform="matrix(2.000481 0 0 2.000481 159.7786 -203.1433)" /></g><rect x="-36.85041" y="153.0709" width="62.3622" height="28.34646" rx="7.086614" ry="7.086614" fill="#FFFFFF" fill-opacity="1" transform="matrix(2.000481 0 0 2.000481 159.7786 -203.1433)" /><rect x="-36.85041" y="153.0709" width="62.3622" height="28.34646" rx="7.086614" ry="7.086614" fill="none" stroke="#000000" stroke-width="1" stroke-linecap="butt" stroke-linejoin="miter" stroke-dasharray="" transform="matrix(2.000481 0 0 2.000481 159.7786 -203.1433)" /><text x="-24.30969" y="171.0995" font-size="11" fill="#000000" fill-opacity="1" font-family="Arial" font-weight="normal" font-style="normal" transform="matrix(2.000481 0 0 2.000481 159.7786 -203.1433)">IN-CSE</text><rect x="124.7244" y="153.0709" width="62.3622" height="28.34646" rx="7.086614" ry="7.086614" fill="#FFFFFF" fill-opacity="1" transform="matrix(2.000481 0 0 2.000481 159.7786 -203.1433)" /><rect x="124.7244" y="153.0709" width="62.3622" height="28.34646" rx="7.086614" ry="7.086614" fill="none" stroke="#000000" stroke-width="1" stroke-linecap="butt" stroke-linejoin="miter" stroke-dasharray="" transform="matrix(2.000481 0 0 2.000481 159.7786 -203.1433)" /><text x="137.2651" y="171.0995" font-size="11" fill="#000000" fill-opacity="1" font-family="Arial" font-weight="normal" font-style="normal" transform="matrix(2.000481 0 0 2.000481 159.7786 -203.1433)">IN-CSE</text><rect x="286.2992" y="153.0709" width="62.3622" height="28.34646" rx="7.086614" ry="7.086614" fill="#FFFFFF" fill-opacity="1" transform="matrix(2.000481 0 0 2.000481 159.7786 -203.1433)" /><rect x="286.2992" y="153.0709" width="62.3622" height="28.34646" rx="7.086614" ry="7.086614" fill="none" stroke="#000000" stroke-width="1" stroke-linecap="butt" stroke-linejoin="miter" stroke-dasharray="" transform="matrix(2.000481 0 0 2.000481 159.7786 -203.1433)" /><text x="298.84" y="171.0995" font-size="11" fill="#000000" fill-opacity="1" font-family="Arial" font-weight="normal" font-style="normal" transform="matrix(2.000481 0 0 2.000481 159.7786 -203.1433)">IN-CSE</text></svg>